<svg xmlns="http://www.w3.org/2000/svg" width="555.508" height="281.556" viewBox="0 0 555.508 281.556">
  <g id="Group_12" data-name="Group 12" transform="translate(-4246.053 -1251.911)">
    <g id="Group_8" data-name="Group 8" transform="translate(4400.978 1251.911)">
      <g id="Group_7" data-name="Group 7" transform="translate(0 30.244)">
        <path id="Subtraction_4" data-name="Subtraction 4" d="M17.775,193.129A139.224,139.224,0,0,1,0,124.275a145.933,145.933,0,0,1,1.976-23.981A140.015,140.015,0,0,1,7.658,77.857,133.334,133.334,0,0,1,16.671,57.4,125.124,125.124,0,0,1,28.645,39.356a115.453,115.453,0,0,1,14.562-15.2A105.614,105.614,0,0,1,59.983,12.245,97.515,97.515,0,0,1,78.6,4.047,93.118,93.118,0,0,1,98.692,0L86.076,10.509l-13.72,2.408-59.9,64.2c0,.07-.287,8.471-.479,20.439l-.182.269v20.74c0,.548,0,1.1,0,1.648v24.114l.006.01c.112.2.232.4.312.545.624,22.777,2.141,37.959,4.507,45.125.334,1.013.723,2.064,1.156,3.124Z" transform="translate(0 0.509)" fill="#c7e8fd"/>
        <path id="Subtraction_1" data-name="Subtraction 1" d="M99.73,199.952h0l-63.186-13.32L0,127.887,12.637,50.015l27.2-4.445a115.652,115.652,0,0,0-8.23,43.479c0,23,6.263,44.62,17.635,60.882s26.493,25.218,42.575,25.218,31.2-8.956,42.575-25.218,17.635-37.884,17.635-60.882c0-22.554-6.056-43.876-17.052-60.037a17.2,17.2,0,0,1-.819-4.074,8.98,8.98,0,0,1,.935-5.032,7.426,7.426,0,0,1,5.022-3.491,41.771,41.771,0,0,1,6.2-.421c.916,0,1.774.02,2.646.043l.162,0c.764.02,1.485.039,2.156.039,2.2,0,3.916-.209,5.137-1.231,1.15-.96,1.524-3.342,2-6.358.223-1.421.476-3.032.845-4.723,1.413-2.5,2.984-3.77,4.669-3.77a4.269,4.269,0,0,1,2.156.649c1.77,1.98,3.508,4.062,5.164,6.187a35.957,35.957,0,0,1,1.692,3.463l25.151,65.332L162.574,177.069,99.73,199.952Z" transform="translate(15.05 33.361)" fill="#768994"/>
        <path id="Intersection_1" data-name="Intersection 1" d="M0,181.9s54.8-16.853,67.422-65.267C83.64,67.5,47.418,91.287,51.46,58.33c.778-21.609,42.6-3.265,15.08-26.739C50.7,16.035,59.793,5.12,68.662,0,86.4,22.25,97.255,52.076,97.255,84.854c0,48.164-23.425,89.946-57.714,110.7Z" transform="translate(116.491 38.887)" fill="#62b0e1"/>
        <path id="Path_39" data-name="Path 39" d="M648.893,448.138s-.389,25.616-17.866,31.595-36.519-6.163-42.59,11.958,2.9,29.85-12.28,38.4-14.281,5.887-20.536,10.211-11.406,7.819-11.13,18.857,6.255,31.115,2.668,38.842-4.721,7.995-9.983,10.147-10.613-18.215-10.613-18.215v-46.5L565.7,485.4l48.194-37.082Z" transform="translate(-514.767 -445.105)" fill="#77c1ef"/>
        <path id="Path_41" data-name="Path 41" d="M650.559,442.492s-36.73.071-47.971,10.355-4.813,24.485-22.631,39.313-22.948-2.906-42.094,36.234c-14.792,56.551,3.074,121.226,76.232,132.948,68.511-.4,100.24-43.653,113.337-73.46,0,0-4.466,30.84-23.5,55.575-22.231,33.144-58.252,48.884-85.891,45.27-46.866-1.895-77.725-36.762-85-58.791s-4.673-112.947-4.673-112.947,31.532-46.4,60.316-64.836c10.967-7.024,17.232-11.15,26.969-12.295C631.113,438.039,650.559,442.492,650.559,442.492Z" transform="translate(-516.416 -439.421)" fill="#c7e8fd"/>
      </g>
      <path id="Subtraction_5" data-name="Subtraction 5" d="M1.453,74.818a.758.758,0,0,1-.49-.254C-.031,71.724-.317,66.725.4,64.657a21.927,21.927,0,0,1,2.573-6.05c.842-1.384,1.4-2.3,1.673-6.262-.043-.023-.086-.049-.126-.076.361-.438.743-.907,1.135-1.392,1.91-2.95,6.326-8.048,9.874-12.144,1.575-1.819,3.063-3.537,4.136-4.838,7.954-8.306,11.946-12.475,19.383-16.759a52.846,52.846,0,0,0-25.468,15.98c-3.632,4.669-7.309,9.376-10.93,13.99A32.735,32.735,0,0,1,2.66,40.92a41.143,41.143,0,0,1,1.293-7.16c1.053-3.837,3.167-9.228,7.264-13.116A74,74,0,0,1,24.942,8.619,44.377,44.377,0,0,1,33.4,4.268a38.059,38.059,0,0,1,9.732-2.3C56.878.606,61.068.006,61.109,0V.016c-.02.469-.211,4.727-.9,9.73A74.168,74.168,0,0,1,58.6,18.119a29.214,29.214,0,0,1-2.8,7.32c-.542.921-1.086,1.872-1.663,2.88l0,0A100.4,100.4,0,0,1,46.543,40.2a35.368,35.368,0,0,1-11.191,9.862c-.655.443-1.27.861-1.865,1.265-4.112,2.794-7.082,4.813-10.334,6.16-3.334,1.381-6.914,2.064-12.355,2.358C5.27,62.522,3.707,68.407,2.772,71.924,2.309,73.667,2,74.818,1.453,74.818Z" transform="translate(140.436 0)" fill="#93ffcb"/>
    </g>
    <path id="Union_5" data-name="Union 5" d="M64.726,189.367V40.948H0A40.948,40.948,0,0,1,40.948,0H178.825a40.948,40.948,0,0,1-40.948,40.948H112.894V237.535A48.168,48.168,0,0,1,64.726,189.367Z" transform="translate(4246.053 1294.432)" fill="#77c1ef"/>
    <path id="Union_6" data-name="Union 6" d="M0,189.06V0H48.168V.188H88.043q25.072,0,44.105,9.173t29.276,26.066q10.242,16.893,10.243,38.449c0,21.81-3.934,39.676-18.865,52.263s-10.571,11.349-34.626,21.835H48.168v89.255A48.168,48.168,0,0,1,0,189.06Zm88.02-80.306c12.128,0,22.809-1.707,29.179-7.414s12.3-16.625,12.3-27.225c0-10.9-4.9-18.535-11.322-25.261s-17.529-9.338-28.842-9.542H48.168v69.442Z" transform="translate(4629.893 1296.239)" fill="#77c1ef"/>
  </g>
</svg>
